<mxfile host="app.diagrams.net" modified="2023-12-07T00:46:18.183Z" agent="Mozilla/5.0 (Macintosh; Intel Mac OS X 10_15_7) AppleWebKit/537.36 (KHTML, like Gecko) Chrome/119.0.0.0 Safari/537.36" etag="fJQ2xsbflgTsruGgaIUM" version="22.1.7" type="github">
  <diagram name="Page-1" id="z5z_z5UX7rN3ulH2au5s">
    <mxGraphModel dx="1434" dy="1941" grid="1" gridSize="10" guides="1" tooltips="1" connect="1" arrows="1" fold="1" page="1" pageScale="1" pageWidth="850" pageHeight="1100" math="0" shadow="0">
      <root>
        <mxCell id="0" />
        <mxCell id="1" parent="0" />
        <mxCell id="fMVe0q1KU0go1LYvx9WX-5" value="reinhardttube.reinhardtvanwyk.com" style="sketch=0;points=[[0,0,0],[0.25,0,0],[0.5,0,0],[0.75,0,0],[1,0,0],[0,1,0],[0.25,1,0],[0.5,1,0],[0.75,1,0],[1,1,0],[0,0.25,0],[0,0.5,0],[0,0.75,0],[1,0.25,0],[1,0.5,0],[1,0.75,0]];outlineConnect=0;fontColor=#232F3E;fillColor=#7AA116;strokeColor=#ffffff;dashed=0;verticalLabelPosition=bottom;verticalAlign=top;align=center;html=1;fontSize=12;fontStyle=0;aspect=fixed;shape=mxgraph.aws4.resourceIcon;resIcon=mxgraph.aws4.s3;" vertex="1" parent="1">
          <mxGeometry x="620" y="420" width="78" height="78" as="geometry" />
        </mxCell>
        <mxCell id="fMVe0q1KU0go1LYvx9WX-6" value="CloudFront" style="outlineConnect=0;dashed=0;verticalLabelPosition=bottom;verticalAlign=top;align=center;html=1;shape=mxgraph.aws3.cloudfront;fillColor=#F58536;gradientColor=none;" vertex="1" parent="1">
          <mxGeometry x="420" y="412.5" width="76.5" height="93" as="geometry" />
        </mxCell>
        <mxCell id="fMVe0q1KU0go1LYvx9WX-11" value="" style="edgeStyle=orthogonalEdgeStyle;rounded=0;orthogonalLoop=1;jettySize=auto;html=1;" edge="1" parent="1" source="fMVe0q1KU0go1LYvx9WX-7" target="fMVe0q1KU0go1LYvx9WX-6">
          <mxGeometry relative="1" as="geometry" />
        </mxCell>
        <mxCell id="fMVe0q1KU0go1LYvx9WX-7" value="Route53" style="outlineConnect=0;dashed=0;verticalLabelPosition=bottom;verticalAlign=top;align=center;html=1;shape=mxgraph.aws3.route_53;fillColor=#F58536;gradientColor=none;" vertex="1" parent="1">
          <mxGeometry x="266" y="416.25" width="70.5" height="85.5" as="geometry" />
        </mxCell>
        <mxCell id="fMVe0q1KU0go1LYvx9WX-10" value="" style="edgeStyle=orthogonalEdgeStyle;rounded=0;orthogonalLoop=1;jettySize=auto;html=1;" edge="1" parent="1" source="fMVe0q1KU0go1LYvx9WX-9" target="fMVe0q1KU0go1LYvx9WX-7">
          <mxGeometry relative="1" as="geometry" />
        </mxCell>
        <mxCell id="fMVe0q1KU0go1LYvx9WX-15" value="Get SPA" style="edgeLabel;html=1;align=center;verticalAlign=middle;resizable=0;points=[];" vertex="1" connectable="0" parent="fMVe0q1KU0go1LYvx9WX-10">
          <mxGeometry x="-0.2476" y="4" relative="1" as="geometry">
            <mxPoint as="offset" />
          </mxGeometry>
        </mxCell>
        <mxCell id="fMVe0q1KU0go1LYvx9WX-9" value="" style="image;points=[];aspect=fixed;html=1;align=center;shadow=0;dashed=0;image=img/lib/allied_telesis/computer_and_terminals/Laptop.svg;" vertex="1" parent="1">
          <mxGeometry x="70" y="291.02" width="102" height="103.46" as="geometry" />
        </mxCell>
        <mxCell id="fMVe0q1KU0go1LYvx9WX-14" value="" style="endArrow=classic;html=1;rounded=0;" edge="1" parent="1" source="fMVe0q1KU0go1LYvx9WX-6" target="fMVe0q1KU0go1LYvx9WX-5">
          <mxGeometry width="50" height="50" relative="1" as="geometry">
            <mxPoint x="530" y="320" as="sourcePoint" />
            <mxPoint x="580" y="270" as="targetPoint" />
          </mxGeometry>
        </mxCell>
        <mxCell id="fMVe0q1KU0go1LYvx9WX-34" value="" style="edgeStyle=orthogonalEdgeStyle;rounded=0;orthogonalLoop=1;jettySize=auto;html=1;entryX=0;entryY=0.5;entryDx=0;entryDy=0;entryPerimeter=0;" edge="1" parent="1" source="fMVe0q1KU0go1LYvx9WX-16" target="fMVe0q1KU0go1LYvx9WX-32">
          <mxGeometry relative="1" as="geometry" />
        </mxCell>
        <mxCell id="fMVe0q1KU0go1LYvx9WX-41" value="" style="edgeStyle=orthogonalEdgeStyle;rounded=0;orthogonalLoop=1;jettySize=auto;html=1;" edge="1" parent="1" source="fMVe0q1KU0go1LYvx9WX-16" target="fMVe0q1KU0go1LYvx9WX-40">
          <mxGeometry relative="1" as="geometry" />
        </mxCell>
        <mxCell id="fMVe0q1KU0go1LYvx9WX-16" value="ECS" style="outlineConnect=0;dashed=0;verticalLabelPosition=bottom;verticalAlign=top;align=center;html=1;shape=mxgraph.aws3.ecs;fillColor=#F58534;gradientColor=none;" vertex="1" parent="1">
          <mxGeometry x="590" y="-57.75" width="72" height="67.5" as="geometry" />
        </mxCell>
        <mxCell id="fMVe0q1KU0go1LYvx9WX-19" value="" style="endArrow=classic;html=1;rounded=0;exitX=0.598;exitY=0;exitDx=0;exitDy=0;exitPerimeter=0;edgeStyle=orthogonalEdgeStyle;" edge="1" parent="1" source="fMVe0q1KU0go1LYvx9WX-9" target="fMVe0q1KU0go1LYvx9WX-25">
          <mxGeometry width="50" height="50" relative="1" as="geometry">
            <mxPoint x="130" y="237.5" as="sourcePoint" />
            <mxPoint x="180" y="120" as="targetPoint" />
            <Array as="points">
              <mxPoint x="131" y="114" />
            </Array>
          </mxGeometry>
        </mxCell>
        <mxCell id="fMVe0q1KU0go1LYvx9WX-21" value="S3:&lt;br&gt;Videos" style="sketch=0;points=[[0,0,0],[0.25,0,0],[0.5,0,0],[0.75,0,0],[1,0,0],[0,1,0],[0.25,1,0],[0.5,1,0],[0.75,1,0],[1,1,0],[0,0.25,0],[0,0.5,0],[0,0.75,0],[1,0.25,0],[1,0.5,0],[1,0.75,0]];outlineConnect=0;fontColor=#232F3E;fillColor=#7AA116;strokeColor=#ffffff;dashed=0;verticalLabelPosition=bottom;verticalAlign=top;align=center;html=1;fontSize=12;fontStyle=0;aspect=fixed;shape=mxgraph.aws4.resourceIcon;resIcon=mxgraph.aws4.s3;" vertex="1" parent="1">
          <mxGeometry x="630" y="170" width="78" height="78" as="geometry" />
        </mxCell>
        <mxCell id="fMVe0q1KU0go1LYvx9WX-33" value="" style="edgeStyle=orthogonalEdgeStyle;rounded=0;orthogonalLoop=1;jettySize=auto;html=1;" edge="1" parent="1" source="fMVe0q1KU0go1LYvx9WX-23" target="fMVe0q1KU0go1LYvx9WX-16">
          <mxGeometry relative="1" as="geometry" />
        </mxCell>
        <mxCell id="fMVe0q1KU0go1LYvx9WX-23" value="App Load Balancer" style="outlineConnect=0;dashed=0;verticalLabelPosition=bottom;verticalAlign=top;align=center;html=1;shape=mxgraph.aws3.application_load_balancer;fillColor=#F58534;gradientColor=none;" vertex="1" parent="1">
          <mxGeometry x="413.75" y="-60" width="69" height="72" as="geometry" />
        </mxCell>
        <mxCell id="fMVe0q1KU0go1LYvx9WX-25" value="API GW" style="outlineConnect=0;dashed=0;verticalLabelPosition=bottom;verticalAlign=top;align=center;html=1;shape=mxgraph.aws3.api_gateway;fillColor=#D9A741;gradientColor=none;" vertex="1" parent="1">
          <mxGeometry x="200" y="56.99999999999997" width="76.5" height="93" as="geometry" />
        </mxCell>
        <mxCell id="fMVe0q1KU0go1LYvx9WX-27" value="" style="endArrow=classic;html=1;rounded=0;edgeStyle=orthogonalEdgeStyle;entryX=0;entryY=0.5;entryDx=0;entryDy=0;entryPerimeter=0;" edge="1" parent="1" target="fMVe0q1KU0go1LYvx9WX-23">
          <mxGeometry width="50" height="50" relative="1" as="geometry">
            <mxPoint x="280" y="110" as="sourcePoint" />
            <mxPoint x="425" y="90" as="targetPoint" />
            <Array as="points">
              <mxPoint x="280" y="111" />
              <mxPoint x="360" y="111" />
              <mxPoint x="360" y="-24" />
            </Array>
          </mxGeometry>
        </mxCell>
        <mxCell id="fMVe0q1KU0go1LYvx9WX-28" value="Profile Management&lt;br&gt;Video Upload&lt;br&gt;Content Management" style="edgeLabel;html=1;align=center;verticalAlign=middle;resizable=0;points=[];" vertex="1" connectable="0" parent="fMVe0q1KU0go1LYvx9WX-27">
          <mxGeometry x="-0.0361" relative="1" as="geometry">
            <mxPoint x="-239" y="88" as="offset" />
          </mxGeometry>
        </mxCell>
        <mxCell id="fMVe0q1KU0go1LYvx9WX-29" value="Profile Management&lt;br&gt;Content Management" style="edgeLabel;html=1;align=center;verticalAlign=middle;resizable=0;points=[];" vertex="1" connectable="0" parent="fMVe0q1KU0go1LYvx9WX-27">
          <mxGeometry x="0.1863" y="-2" relative="1" as="geometry">
            <mxPoint y="18" as="offset" />
          </mxGeometry>
        </mxCell>
        <mxCell id="fMVe0q1KU0go1LYvx9WX-31" value="S3:&lt;br&gt;Content" style="sketch=0;points=[[0,0,0],[0.25,0,0],[0.5,0,0],[0.75,0,0],[1,0,0],[0,1,0],[0.25,1,0],[0.5,1,0],[0.75,1,0],[1,1,0],[0,0.25,0],[0,0.5,0],[0,0.75,0],[1,0.25,0],[1,0.5,0],[1,0.75,0]];outlineConnect=0;fontColor=#232F3E;fillColor=#7AA116;strokeColor=#ffffff;dashed=0;verticalLabelPosition=bottom;verticalAlign=top;align=center;html=1;fontSize=12;fontStyle=0;aspect=fixed;shape=mxgraph.aws4.resourceIcon;resIcon=mxgraph.aws4.s3;" vertex="1" parent="1">
          <mxGeometry x="880" y="-141" width="78" height="78" as="geometry" />
        </mxCell>
        <mxCell id="fMVe0q1KU0go1LYvx9WX-32" value="Fargate:&lt;br&gt;Content" style="sketch=0;points=[[0,0,0],[0.25,0,0],[0.5,0,0],[0.75,0,0],[1,0,0],[0,1,0],[0.25,1,0],[0.5,1,0],[0.75,1,0],[1,1,0],[0,0.25,0],[0,0.5,0],[0,0.75,0],[1,0.25,0],[1,0.5,0],[1,0.75,0]];outlineConnect=0;fontColor=#232F3E;fillColor=#ED7100;strokeColor=#ffffff;dashed=0;verticalLabelPosition=bottom;verticalAlign=top;align=center;html=1;fontSize=12;fontStyle=0;aspect=fixed;shape=mxgraph.aws4.resourceIcon;resIcon=mxgraph.aws4.fargate;" vertex="1" parent="1">
          <mxGeometry x="720" y="-141" width="78" height="78" as="geometry" />
        </mxCell>
        <mxCell id="fMVe0q1KU0go1LYvx9WX-36" value="" style="edgeStyle=orthogonalEdgeStyle;rounded=0;orthogonalLoop=1;jettySize=auto;html=1;entryX=0;entryY=0.5;entryDx=0;entryDy=0;entryPerimeter=0;exitX=1;exitY=0.5;exitDx=0;exitDy=0;exitPerimeter=0;" edge="1" parent="1" source="fMVe0q1KU0go1LYvx9WX-32" target="fMVe0q1KU0go1LYvx9WX-31">
          <mxGeometry relative="1" as="geometry">
            <mxPoint x="808" y="-14" as="sourcePoint" />
            <mxPoint x="890" y="-89" as="targetPoint" />
          </mxGeometry>
        </mxCell>
        <mxCell id="fMVe0q1KU0go1LYvx9WX-43" value="" style="edgeStyle=orthogonalEdgeStyle;rounded=0;orthogonalLoop=1;jettySize=auto;html=1;" edge="1" parent="1" source="fMVe0q1KU0go1LYvx9WX-40" target="fMVe0q1KU0go1LYvx9WX-42">
          <mxGeometry relative="1" as="geometry" />
        </mxCell>
        <mxCell id="fMVe0q1KU0go1LYvx9WX-40" value="Fargate:&lt;br&gt;Profile Management" style="sketch=0;points=[[0,0,0],[0.25,0,0],[0.5,0,0],[0.75,0,0],[1,0,0],[0,1,0],[0.25,1,0],[0.5,1,0],[0.75,1,0],[1,1,0],[0,0.25,0],[0,0.5,0],[0,0.75,0],[1,0.25,0],[1,0.5,0],[1,0.75,0]];outlineConnect=0;fontColor=#232F3E;fillColor=#ED7100;strokeColor=#ffffff;dashed=0;verticalLabelPosition=bottom;verticalAlign=top;align=center;html=1;fontSize=12;fontStyle=0;aspect=fixed;shape=mxgraph.aws4.resourceIcon;resIcon=mxgraph.aws4.fargate;" vertex="1" parent="1">
          <mxGeometry x="720" y="9.75" width="78" height="78" as="geometry" />
        </mxCell>
        <mxCell id="fMVe0q1KU0go1LYvx9WX-42" value="DynamoDB:&lt;br&gt;Profile" style="sketch=0;points=[[0,0,0],[0.25,0,0],[0.5,0,0],[0.75,0,0],[1,0,0],[0,1,0],[0.25,1,0],[0.5,1,0],[0.75,1,0],[1,1,0],[0,0.25,0],[0,0.5,0],[0,0.75,0],[1,0.25,0],[1,0.5,0],[1,0.75,0]];outlineConnect=0;fontColor=#232F3E;fillColor=#C925D1;strokeColor=#ffffff;dashed=0;verticalLabelPosition=bottom;verticalAlign=top;align=center;html=1;fontSize=12;fontStyle=0;aspect=fixed;shape=mxgraph.aws4.resourceIcon;resIcon=mxgraph.aws4.dynamodb;" vertex="1" parent="1">
          <mxGeometry x="880" y="9.75" width="78" height="78" as="geometry" />
        </mxCell>
        <mxCell id="fMVe0q1KU0go1LYvx9WX-45" value="Lamba:&lt;br&gt;Video Upload" style="outlineConnect=0;dashed=0;verticalLabelPosition=bottom;verticalAlign=top;align=center;html=1;shape=mxgraph.aws3.lambda;fillColor=#F58534;gradientColor=none;" vertex="1" parent="1">
          <mxGeometry x="430" y="87.75" width="76.5" height="93" as="geometry" />
        </mxCell>
        <mxCell id="fMVe0q1KU0go1LYvx9WX-46" value="Lamba:&lt;br&gt;Video Stream" style="outlineConnect=0;dashed=0;verticalLabelPosition=bottom;verticalAlign=top;align=center;html=1;shape=mxgraph.aws3.lambda;fillColor=#F58534;gradientColor=none;" vertex="1" parent="1">
          <mxGeometry x="425" y="240" width="76.5" height="93" as="geometry" />
        </mxCell>
        <mxCell id="fMVe0q1KU0go1LYvx9WX-47" value="" style="endArrow=classic;html=1;rounded=0;edgeStyle=orthogonalEdgeStyle;exitX=1;exitY=0.8;exitDx=0;exitDy=0;exitPerimeter=0;entryX=0;entryY=0.5;entryDx=0;entryDy=0;entryPerimeter=0;" edge="1" parent="1" source="fMVe0q1KU0go1LYvx9WX-25" target="fMVe0q1KU0go1LYvx9WX-45">
          <mxGeometry width="50" height="50" relative="1" as="geometry">
            <mxPoint x="690" y="190" as="sourcePoint" />
            <mxPoint x="740" y="140" as="targetPoint" />
          </mxGeometry>
        </mxCell>
        <mxCell id="fMVe0q1KU0go1LYvx9WX-48" value="" style="endArrow=classic;html=1;rounded=0;edgeStyle=orthogonalEdgeStyle;entryX=0;entryY=0.5;entryDx=0;entryDy=0;entryPerimeter=0;" edge="1" parent="1" target="fMVe0q1KU0go1LYvx9WX-46">
          <mxGeometry width="50" height="50" relative="1" as="geometry">
            <mxPoint x="280" y="130" as="sourcePoint" />
            <mxPoint x="690" y="246.25" as="targetPoint" />
          </mxGeometry>
        </mxCell>
        <mxCell id="fMVe0q1KU0go1LYvx9WX-49" value="" style="endArrow=classic;html=1;rounded=0;edgeStyle=orthogonalEdgeStyle;" edge="1" parent="1" source="fMVe0q1KU0go1LYvx9WX-45" target="fMVe0q1KU0go1LYvx9WX-21">
          <mxGeometry width="50" height="50" relative="1" as="geometry">
            <mxPoint x="690" y="190" as="sourcePoint" />
            <mxPoint x="740" y="140" as="targetPoint" />
          </mxGeometry>
        </mxCell>
        <mxCell id="fMVe0q1KU0go1LYvx9WX-50" value="" style="endArrow=classic;html=1;rounded=0;edgeStyle=orthogonalEdgeStyle;entryX=0;entryY=0.5;entryDx=0;entryDy=0;entryPerimeter=0;" edge="1" parent="1" source="fMVe0q1KU0go1LYvx9WX-46" target="fMVe0q1KU0go1LYvx9WX-21">
          <mxGeometry width="50" height="50" relative="1" as="geometry">
            <mxPoint x="579.5" y="350" as="sourcePoint" />
            <mxPoint x="629.5" y="300" as="targetPoint" />
          </mxGeometry>
        </mxCell>
      </root>
    </mxGraphModel>
  </diagram>
</mxfile>
